<mxfile host="app.diagrams.net" modified="2023-12-21T10:20:19.244Z" agent="Mozilla/5.0 (Macintosh; Intel Mac OS X 10_15_7) AppleWebKit/537.36 (KHTML, like Gecko) Chrome/120.0.0.0 Safari/537.36" etag="F-jYyHSgjeBhfTNj4B8O" version="22.1.11" type="github">
  <diagram name="第 1 页" id="1mzzgMarc1x7JO2Pxrkt">
    <mxGraphModel dx="1306" dy="701" grid="1" gridSize="10" guides="1" tooltips="1" connect="1" arrows="1" fold="1" page="1" pageScale="1" pageWidth="827" pageHeight="1169" math="0" shadow="0">
      <root>
        <mxCell id="0" />
        <mxCell id="1" parent="0" />
        <mxCell id="jpsjFJrAUtEOBHbFd28X-14" style="edgeStyle=orthogonalEdgeStyle;rounded=0;orthogonalLoop=1;jettySize=auto;html=1;exitX=0.5;exitY=1;exitDx=0;exitDy=0;entryX=0.5;entryY=0;entryDx=0;entryDy=0;" parent="1" source="jpsjFJrAUtEOBHbFd28X-1" target="jpsjFJrAUtEOBHbFd28X-2" edge="1">
          <mxGeometry relative="1" as="geometry" />
        </mxCell>
        <mxCell id="jpsjFJrAUtEOBHbFd28X-1" value="开始" style="rounded=1;whiteSpace=wrap;html=1;fillColor=none;" parent="1" vertex="1">
          <mxGeometry x="310" y="152" width="120" height="40" as="geometry" />
        </mxCell>
        <mxCell id="jpsjFJrAUtEOBHbFd28X-15" style="edgeStyle=orthogonalEdgeStyle;rounded=0;orthogonalLoop=1;jettySize=auto;html=1;exitX=0.5;exitY=1;exitDx=0;exitDy=0;entryX=0.5;entryY=0;entryDx=0;entryDy=0;" parent="1" source="jpsjFJrAUtEOBHbFd28X-2" target="jpsjFJrAUtEOBHbFd28X-3" edge="1">
          <mxGeometry relative="1" as="geometry" />
        </mxCell>
        <mxCell id="jpsjFJrAUtEOBHbFd28X-2" value="组网路由" style="rounded=1;whiteSpace=wrap;html=1;fillColor=none;dashed=1;" parent="1" vertex="1">
          <mxGeometry x="265" y="230" width="210" height="120" as="geometry" />
        </mxCell>
        <mxCell id="jpsjFJrAUtEOBHbFd28X-16" style="edgeStyle=orthogonalEdgeStyle;rounded=0;orthogonalLoop=1;jettySize=auto;html=1;exitX=0.5;exitY=1;exitDx=0;exitDy=0;entryX=0.5;entryY=0;entryDx=0;entryDy=0;" parent="1" source="jpsjFJrAUtEOBHbFd28X-3" target="jpsjFJrAUtEOBHbFd28X-7" edge="1">
          <mxGeometry relative="1" as="geometry" />
        </mxCell>
        <mxCell id="jpsjFJrAUtEOBHbFd28X-3" value="" style="rounded=1;whiteSpace=wrap;html=1;fillColor=none;" parent="1" vertex="1">
          <mxGeometry x="265" y="384" width="210" height="64" as="geometry" />
        </mxCell>
        <mxCell id="jpsjFJrAUtEOBHbFd28X-5" value="头程线路" style="rounded=1;whiteSpace=wrap;html=1;fillColor=none;" parent="1" vertex="1">
          <mxGeometry x="280" y="396" width="80" height="40" as="geometry" />
        </mxCell>
        <mxCell id="jpsjFJrAUtEOBHbFd28X-6" value="干线线路" style="rounded=1;whiteSpace=wrap;html=1;fillColor=none;" parent="1" vertex="1">
          <mxGeometry x="380" y="396" width="80" height="40" as="geometry" />
        </mxCell>
        <mxCell id="jpsjFJrAUtEOBHbFd28X-17" style="edgeStyle=orthogonalEdgeStyle;rounded=0;orthogonalLoop=1;jettySize=auto;html=1;exitX=0.5;exitY=1;exitDx=0;exitDy=0;entryX=0.5;entryY=0;entryDx=0;entryDy=0;" parent="1" source="jpsjFJrAUtEOBHbFd28X-7" target="jpsjFJrAUtEOBHbFd28X-8" edge="1">
          <mxGeometry relative="1" as="geometry" />
        </mxCell>
        <mxCell id="jpsjFJrAUtEOBHbFd28X-7" value="&lt;span style=&quot;background-color: initial;&quot;&gt;头程方案，所有必选费用都有运费&lt;/span&gt;" style="rounded=1;whiteSpace=wrap;html=1;fillColor=none;" parent="1" vertex="1">
          <mxGeometry x="265" y="478" width="215" height="40" as="geometry" />
        </mxCell>
        <mxCell id="jpsjFJrAUtEOBHbFd28X-18" style="edgeStyle=orthogonalEdgeStyle;rounded=0;orthogonalLoop=1;jettySize=auto;html=1;exitX=0.5;exitY=1;exitDx=0;exitDy=0;entryX=0.5;entryY=0;entryDx=0;entryDy=0;" parent="1" source="jpsjFJrAUtEOBHbFd28X-8" target="jpsjFJrAUtEOBHbFd28X-13" edge="1">
          <mxGeometry relative="1" as="geometry" />
        </mxCell>
        <mxCell id="jpsjFJrAUtEOBHbFd28X-8" value="&lt;div class=&quot;lake-content&quot;&gt;干线方案，所有必选费用都有运费&lt;/div&gt;" style="rounded=1;whiteSpace=wrap;html=1;fillColor=none;" parent="1" vertex="1">
          <mxGeometry x="265" y="544" width="215" height="36" as="geometry" />
        </mxCell>
        <mxCell id="jpsjFJrAUtEOBHbFd28X-13" value="结束" style="rounded=1;whiteSpace=wrap;html=1;fillColor=none;" parent="1" vertex="1">
          <mxGeometry x="310" y="610" width="120" height="40" as="geometry" />
        </mxCell>
      </root>
    </mxGraphModel>
  </diagram>
</mxfile>
